<svg version="1.1" id="Layer_1" xmlns="http://www.w3.org/2000/svg" xmlns:xlink="http://www.w3.org/1999/xlink" x="0px" y="0px"
	 width="100%" viewBox="0 0 377 377" enable-background="new 0 0 377 377" xml:space="preserve">
<path fill="#FFFFFF" opacity="1.000000" stroke="none" 
	d="
M378.000000,72.531342 
	C254.514862,73.000000 131.029709,73.003151 7.544572,72.971161 
	C5.618367,72.970665 3.692274,72.537445 1.383065,72.653084 
	C1.000000,49.020161 1.000000,25.040323 1.000005,1.060840 
	C126.666679,1.061195 252.333344,1.061195 378.000000,1.061195 
	C378.000000,24.769154 378.000000,48.415920 378.000000,72.531342 
z"/>
<path fill="#FFFFFF" opacity="1.000000" stroke="none" 
	d="
M378.000000,225.531342 
	C254.514877,226.000000 131.029755,226.003128 7.544639,225.971146 
	C5.618409,225.970642 3.692292,225.537460 1.383061,225.653091 
	C1.000000,202.312439 1.000000,178.624878 1.000000,154.468658 
	C126.354225,154.000000 251.708450,154.000000 377.531342,154.000000 
	C378.000000,177.687561 378.000000,201.375122 378.000000,225.531342 
z"/>
<path fill="#FFFFFF" opacity="1.000000" stroke="none" 
	d="
M1.000000,307.468658 
	C126.354225,307.000000 251.708450,307.000000 377.531342,307.000000 
	C378.000000,330.646698 378.000000,354.293427 378.000000,377.939606 
	C252.333313,377.939087 126.666649,377.939087 1.000000,377.939087 
	C1.000000,354.564575 1.000000,331.250946 1.000000,307.468658 
z"/>
</svg>