<svg version="1.1" id="Layer_1" xmlns="http://www.w3.org/2000/svg" xmlns:xlink="http://www.w3.org/1999/xlink" x="0px" y="0px"
	 width="100%" viewBox="0 0 830 830" enable-background="new 0 0 830 830" xml:space="preserve">
<path fill="#A6A6A6" opacity="1.000000" stroke="none" 
	d="
M375.468658,831.000000 
	C374.357208,830.336243 373.788208,829.191650 373.060699,829.080017 
	C359.362823,826.977661 345.537720,825.547363 331.957825,822.868530 
	C309.185272,818.376221 286.868713,811.997925 265.437042,803.000732 
	C250.612930,796.777466 235.875687,790.251526 221.527908,783.011963 
	C200.861710,772.584351 181.213028,760.264893 163.344772,745.569580 
	C146.812210,731.972717 130.470001,717.940186 115.585785,702.603210 
	C101.824219,688.422913 89.511803,672.704529 77.638733,656.856262 
	C62.586128,636.763916 50.133369,614.948303 39.634888,592.121643 
	C27.139544,564.953247 16.886810,536.967102 11.028906,507.548553 
	C8.139615,493.038483 5.697466,478.439331 3.054568,463.880188 
	C2.598839,461.369690 2.151081,458.857758 1.349822,456.673218 
	C1.000000,429.979095 1.000000,402.958221 1.000005,375.468658 
	C1.663762,374.357178 2.808392,373.788116 2.920053,373.060547 
	C5.022396,359.361725 6.451248,345.535339 9.131791,331.954895 
	C13.626844,309.181610 20.006990,286.865021 29.000341,265.429321 
	C35.283566,250.453217 41.735802,235.494431 49.142044,221.055969 
	C59.622707,200.623962 71.797157,181.074844 86.410675,163.347153 
	C99.822395,147.077347 113.590141,130.933121 128.701431,116.280991 
	C142.888351,102.525154 158.672943,90.315323 174.416672,78.292274 
	C194.646713,62.843140 216.780609,50.321697 239.873962,39.650402 
	C267.022064,27.105415 295.004700,16.772575 324.454712,11.072635 
	C340.753662,7.918036 357.223358,5.647506 373.606750,2.922246 
	C374.336334,2.800889 374.972870,2.120292 375.326355,1.350089 
	C401.687561,1.000000 428.375122,1.000000 455.531342,0.999993 
	C456.655029,1.663919 457.237823,2.809875 457.975739,2.920435 
	C472.006592,5.022687 486.169739,6.419920 500.075195,9.140449 
	C522.852234,13.596663 545.157715,20.015177 566.585632,29.015892 
	C581.409058,35.242409 596.144897,41.770847 610.497681,49.002277 
	C631.160400,59.412884 650.777466,71.753113 668.651550,86.422234 
	C684.939819,99.789894 701.054626,113.577202 715.698059,128.680313 
	C729.458679,142.872910 741.657349,158.674149 753.706726,174.408218 
	C769.184570,194.619339 781.655151,216.787384 792.318787,239.869034 
	C804.855835,267.005737 815.283936,294.963593 820.920227,324.428680 
	C824.100647,341.055054 826.350708,357.859070 829.075012,374.574036 
	C829.194031,375.304565 829.865173,375.945038 830.639526,376.313721 
	C831.000000,402.687561 831.000000,429.375122 831.000000,456.531342 
	C830.336243,457.642548 829.191650,458.211304 829.080017,458.938538 
	C826.977783,472.636322 825.548462,486.461517 822.868408,500.041016 
	C818.374268,522.812134 812.002625,545.129578 802.997803,566.558167 
	C796.768860,581.381165 790.261902,596.129333 783.004333,610.468140 
	C772.552917,631.117432 760.302979,650.812866 745.570984,668.655273 
	C731.729980,685.418518 717.459229,701.988403 701.896790,717.120483 
	C687.969971,730.662292 672.463257,742.715881 656.859863,754.362854 
	C636.874390,769.280579 615.209778,781.636719 592.530457,792.083679 
	C565.065186,804.735291 536.839478,815.232300 507.052643,821.018188 
	C492.528259,823.839478 477.940735,826.335571 463.382629,828.983459 
	C461.035095,829.410339 458.691803,829.860779 456.673279,830.650146 
	C429.979095,831.000000 402.958221,831.000000 375.468658,831.000000 
M558.904968,31.549215 
	C507.916107,13.220841 455.538666,4.311679 401.190765,6.781941 
	C381.352966,7.683623 361.730072,9.357798 342.204224,12.834352 
	C289.694427,22.183641 241.035080,41.396248 196.110580,70.003883 
	C161.187439,92.242744 130.315842,119.167923 103.501579,150.806946 
	C82.718613,175.329453 64.996353,201.833801 50.380478,230.403793 
	C34.441696,261.559692 22.897757,294.332581 15.392440,328.515594 
	C10.062811,352.789398 7.048126,377.405090 6.158288,402.193665 
	C5.105000,431.535522 7.555378,460.678619 12.775881,489.623230 
	C22.395748,542.959778 41.939690,592.331360 71.271088,637.831482 
	C93.341049,672.067383 119.931610,702.339844 151.043228,728.713684 
	C174.407013,748.519653 199.608582,765.539429 226.680344,779.721741 
	C258.567688,796.426636 292.159119,808.693970 327.379822,816.281860 
	C354.266418,822.074280 381.436401,825.974731 408.990448,825.882141 
	C423.773041,825.832458 438.565399,824.908752 453.329498,823.994507 
	C476.333527,822.569946 498.917267,818.289612 521.123108,812.332764 
	C559.309387,802.088989 595.332397,786.786255 629.167908,766.113647 
	C668.507202,742.078552 702.863098,712.392761 732.168762,676.966125 
	C754.867615,649.526062 773.621216,619.522034 788.591553,587.089478 
	C811.525208,537.405029 823.315247,485.144775 825.875732,430.699768 
	C827.043152,405.875305 825.301208,381.092407 821.702637,356.535767 
	C815.451233,313.876190 802.877869,273.075958 783.650391,234.435959 
	C768.599548,204.189362 750.104980,176.212112 728.180359,150.441452 
	C708.449036,127.248741 686.493347,106.477859 662.204041,88.200111 
	C630.729309,64.515297 596.496338,45.753826 558.904968,31.549215 
z"/>
<path fill="#BFBFBF" opacity="1.000000" stroke="none" 
	d="
M559.262695,31.701244 
	C596.496338,45.753826 630.729309,64.515297 662.204041,88.200111 
	C686.493347,106.477859 708.449036,127.248741 728.180359,150.441452 
	C750.104980,176.212112 768.599548,204.189362 783.650391,234.435959 
	C802.877869,273.075958 815.451233,313.876190 821.702637,356.535767 
	C825.301208,381.092407 827.043152,405.875305 825.875732,430.699768 
	C823.315247,485.144775 811.525208,537.405029 788.591553,587.089478 
	C773.621216,619.522034 754.867615,649.526062 732.168762,676.966125 
	C702.863098,712.392761 668.507202,742.078552 629.167908,766.113647 
	C595.332397,786.786255 559.309387,802.088989 521.123108,812.332764 
	C498.917267,818.289612 476.333527,822.569946 453.329498,823.994507 
	C438.565399,824.908752 423.773041,825.832458 408.990448,825.882141 
	C381.436401,825.974731 354.266418,822.074280 327.379822,816.281860 
	C292.159119,808.693970 258.567688,796.426636 226.680344,779.721741 
	C199.608582,765.539429 174.407013,748.519653 151.043228,728.713684 
	C119.931610,702.339844 93.341049,672.067383 71.271088,637.831482 
	C41.939690,592.331360 22.395748,542.959778 12.775881,489.623230 
	C7.555378,460.678619 5.105000,431.535522 6.158288,402.193665 
	C7.048126,377.405090 10.062811,352.789398 15.392440,328.515594 
	C22.897757,294.332581 34.441696,261.559692 50.380478,230.403793 
	C64.996353,201.833801 82.718613,175.329453 103.501579,150.806946 
	C130.315842,119.167923 161.187439,92.242744 196.110580,70.003883 
	C241.035080,41.396248 289.694427,22.183641 342.204224,12.834352 
	C361.730072,9.357798 381.352966,7.683623 401.190765,6.781941 
	C455.538666,4.311679 507.916107,13.220841 559.262695,31.701244 
z"/>
</svg>