<svg version="1.1" id="Layer_1" xmlns="http://www.w3.org/2000/svg" xmlns:xlink="http://www.w3.org/1999/xlink" x="0px" y="0px"
	 width="100%" viewBox="0 0 990 1106" enable-background="new 0 0 990 1106" xml:space="preserve">
<path fill="#FFC000" opacity="1.000000" stroke="none" 
	d="
M4.539095,381.846649 
	C3.528952,381.329407 2.518808,380.812164 1.254332,380.647461 
	C1.000000,380.555542 1.000000,380.111115 1.000000,379.333313 
	C2.070063,379.006836 3.140125,379.013672 4.542675,379.542664 
	C4.763140,380.658752 4.651118,381.252716 4.539095,381.846649 
z"/>
<path fill="#FFC000" opacity="1.000000" stroke="none" 
	d="
M4.559737,381.830750 
	C4.651118,381.252716 4.763140,380.658752 4.937259,379.615723 
	C13.493747,379.111084 21.988127,379.009369 30.482531,379.007416 
	C90.470322,378.993469 150.458206,378.959137 210.445694,379.094086 
	C214.345001,379.102844 216.734695,378.016632 218.793900,374.709381 
	C228.748825,358.720856 240.181503,343.855988 253.158981,330.175110 
	C254.043533,329.242615 254.328903,327.025909 253.928574,325.696960 
	C247.032257,302.803436 240.028214,279.941986 232.958923,257.100983 
	C222.831650,224.379608 212.619873,191.684387 202.470520,158.969818 
	C198.735565,146.930908 195.061188,134.873108 191.406128,122.809700 
	C191.087402,121.757736 191.120163,120.599274 190.802719,117.902107 
	C196.900375,122.271034 202.043533,125.792969 207.012711,129.545288 
	C226.247757,144.069992 245.477142,158.603088 264.613678,173.257080 
	C283.902557,188.027786 303.038757,202.997818 322.317902,217.781296 
	C335.883759,228.183731 349.542267,238.466858 363.275330,248.646835 
	C364.440552,249.510574 366.673126,249.782990 368.089874,249.329803 
	C385.766357,243.675568 403.310913,237.593292 421.084808,232.274017 
	C424.193512,231.343658 425.011292,229.874908 425.705322,227.622253 
	C433.840973,201.215881 441.850494,174.770538 450.029572,148.377716 
	C459.500214,117.817413 469.138367,87.309059 478.641327,56.758717 
	C483.823822,40.097775 488.867920,23.393814 494.010925,6.720503 
	C494.318634,5.722872 494.950439,4.825206 496.774872,3.702180 
	C498.428223,8.263036 500.251282,12.770547 501.704712,17.394249 
	C507.180206,34.813652 512.545105,52.267895 517.933594,69.714592 
	C527.899536,101.982246 537.861145,134.251221 547.808533,166.524567 
	C554.185730,187.215042 560.486633,207.929382 567.001526,228.576309 
	C567.440979,229.968872 569.210022,231.444885 570.676758,231.933594 
	C588.295288,237.804092 605.956909,243.548096 623.665405,249.140976 
	C625.209045,249.628494 627.622559,249.430725 628.858765,248.511429 
	C646.628479,235.297470 664.304749,221.956696 681.924561,208.542740 
	C706.038879,190.184525 730.114380,171.774933 754.150940,153.315109 
	C767.732178,142.884872 781.173340,132.272293 794.769592,121.862015 
	C796.037476,120.891220 797.969849,120.788277 799.593689,120.282379 
	C799.660156,122.061699 800.218140,123.993454 799.720642,125.597916 
	C789.002563,160.162048 778.123047,194.676041 767.368896,229.229034 
	C760.357849,251.755310 753.464111,274.318329 746.582458,296.884583 
	C743.613342,306.620636 740.742981,316.388519 738.010254,326.192841 
	C737.678040,327.384796 738.022583,329.333099 738.834839,330.191559 
	C751.792175,343.884674 763.365234,358.642273 773.214478,374.712952 
	C775.252502,378.038452 777.666504,379.101044 781.562256,379.093475 
	C848.381714,378.963409 915.201538,378.993195 982.021240,379.030121 
	C984.222473,379.031342 986.423462,379.477295 989.057312,380.898590 
	C966.010193,398.462769 942.959595,416.022247 919.917114,433.592560 
	C901.649902,447.521667 883.373352,461.438721 865.137756,475.409180 
	C851.937683,485.521851 838.824097,495.747437 825.616882,505.850677 
	C821.081116,509.320435 824.299500,513.784668 824.249512,517.604614 
	C824.151367,525.112366 825.694153,532.626648 825.916504,540.157104 
	C826.240967,551.145264 826.224915,562.156677 825.910339,573.145386 
	C825.738159,579.161011 824.654236,585.150574 823.568420,591.669800 
	C820.440369,594.120789 819.771606,596.067200 823.117249,598.039795 
	C823.083130,598.465393 823.049011,598.890930 822.870361,599.870911 
	C824.182068,601.596741 825.638306,602.768127 827.094482,603.939575 
	C827.094482,603.939575 827.023010,603.973755 827.092285,604.282776 
	C831.511780,610.482361 836.800232,615.086304 844.094482,616.939575 
	C844.094482,616.939575 844.023010,616.973755 844.092285,617.282776 
	C848.511780,623.482361 853.800232,628.086304 861.094482,629.939575 
	C861.094482,629.939575 861.023071,629.973694 861.101685,630.289673 
	C862.485046,631.383667 863.789734,632.161621 865.094482,632.939575 
	C865.094482,632.939575 865.023010,632.973755 865.092346,633.282837 
	C868.213989,638.449097 872.201111,642.013000 878.094482,642.939575 
	C878.094482,642.939575 878.023071,642.973694 878.101685,643.289673 
	C879.485046,644.383667 880.789795,645.161621 882.094482,645.939575 
	C882.094482,645.939575 882.023010,645.973755 882.092285,646.282776 
	C886.511780,652.482361 891.800232,657.086304 899.094482,658.939575 
	C899.094482,658.939575 899.023010,658.973755 899.092285,659.282776 
	C903.511780,665.482361 908.800232,670.086304 916.094482,671.939575 
	C916.094482,671.939575 916.023010,671.973755 916.092285,672.282776 
	C920.511780,678.482361 925.800232,683.086304 933.094482,684.939575 
	C933.094482,684.939575 933.023010,684.973755 933.092285,685.282776 
	C937.511780,691.482361 942.800232,696.086304 950.094482,697.939575 
	C950.094482,697.939575 950.023071,697.973694 950.101685,698.289673 
	C951.485046,699.383667 952.789795,700.161621 954.094482,700.939575 
	C954.094482,700.939575 954.023010,700.973755 954.092285,701.282776 
	C958.511780,707.482361 963.800232,712.086304 971.094482,713.939575 
	C971.094482,713.939575 971.023010,713.973755 971.092285,714.282776 
	C975.446106,720.057495 980.012146,725.126465 987.449341,726.149048 
	C987.449341,726.149048 987.769348,726.253662 987.628296,726.773987 
	C987.324707,727.807312 987.162170,728.320374 986.999634,728.833374 
	C978.503723,728.888855 970.007751,728.990540 961.511841,728.992554 
	C901.513123,729.006531 841.514221,729.041992 781.515869,728.903687 
	C777.596497,728.894653 775.232056,730.020874 773.181030,733.322205 
	C763.239014,749.325317 751.787415,764.179504 738.804565,777.860291 
	C737.923340,778.788818 737.668152,781.018677 738.072937,782.355164 
	C745.098633,805.549133 752.254028,828.703918 759.420410,851.855103 
	C769.456238,884.275757 779.551758,916.677979 789.564026,949.105835 
	C793.139343,960.685547 796.597656,972.302368 799.969727,983.942627 
	C800.415222,985.480347 800.030884,987.258423 800.030884,990.072876 
	C779.711304,974.411194 760.554382,959.518677 741.257324,944.809998 
	C724.035706,931.683411 706.583801,918.858826 689.371216,905.720703 
	C670.055847,890.977478 650.861328,876.074951 631.698120,861.134155 
	C628.335144,858.512207 625.752441,858.072632 621.257874,859.685547 
	C604.551514,865.680908 587.456787,870.589111 570.564880,876.080994 
	C569.105103,876.555542 567.379028,878.101624 566.930359,879.515991 
	C558.526184,906.009644 550.294434,932.557983 542.031189,959.096313 
	C532.469604,989.804749 522.900024,1020.510620 513.358643,1051.225342 
	C508.230896,1067.731812 503.172485,1084.259644 498.025696,1100.760010 
	C497.570038,1102.220703 496.690369,1103.549194 495.524231,1105.923340 
	C492.139435,1095.645752 489.011322,1086.521851 486.134216,1077.319336 
	C482.324524,1065.133911 478.754578,1052.873657 475.004822,1040.669189 
	C465.702148,1010.391174 456.345001,980.130005 447.030670,949.855591 
	C439.996643,926.992981 432.958923,904.131348 426.020386,881.239746 
	C425.060669,878.073364 423.694946,876.442505 420.128387,875.362183 
	C402.667267,870.073181 385.402161,864.139465 368.011169,858.611694 
	C366.605865,858.164978 364.379211,858.533447 363.198578,859.413879 
	C345.443817,872.654846 327.736725,885.961975 310.147186,899.421814 
	C288.133850,916.266968 266.255432,933.288330 244.286514,950.191711 
	C228.656464,962.217773 213.004425,974.216125 197.257172,986.087524 
	C195.917938,987.097168 193.784882,987.053833 192.020599,987.499695 
	C192.037903,985.871033 191.665283,984.120789 192.129745,982.631592 
	C202.954834,947.921631 213.947083,913.263672 224.741989,878.544373 
	C231.652618,856.317993 238.301682,834.010193 245.057861,811.735901 
	C248.106339,801.685364 251.181351,791.642029 254.089600,781.550842 
	C254.396484,780.486084 254.074844,778.718018 253.340057,777.952820 
	C240.043365,764.103394 228.504990,748.896179 218.272964,732.690796 
	C216.499191,729.881531 214.494324,728.914307 211.150803,728.919617 
	C143.319077,729.026855 75.487137,729.000000 7.655238,729.000000 
	C5.750953,729.000000 3.846667,729.000000 1.942382,729.000000 
	C1.854311,728.607178 1.766240,728.214417 1.678169,727.821594 
	C13.588551,718.850525 25.546041,709.941162 37.397869,700.893311 
	C53.599689,688.524597 69.689987,676.009888 85.886658,663.634338 
	C99.475723,653.251221 113.183151,643.023071 126.774605,632.643127 
	C139.992477,622.548462 153.064880,612.262390 166.339264,602.243347 
	C170.647690,598.991516 167.488434,595.020264 167.819229,591.470703 
	C168.209106,587.287292 167.027908,582.984009 166.919312,578.722717 
	C166.525497,563.269226 166.106720,547.811462 166.109741,532.355408 
	C166.110748,527.186218 167.346954,522.017212 168.431580,516.330200 
	C171.559494,513.879211 172.228348,511.932800 168.882706,509.960236 
	C168.916809,509.534637 168.950912,509.109070 169.129532,508.129089 
	C167.817825,506.403290 166.361618,505.231903 164.905411,504.060486 
	C164.905411,504.060486 164.976822,504.026123 164.907562,503.717133 
	C160.488190,497.517456 155.199631,492.913727 147.905380,491.060455 
	C147.905380,491.060455 147.976776,491.026154 147.907547,490.717163 
	C143.488190,484.517487 138.199631,479.913696 130.905380,478.060455 
	C130.905380,478.060455 130.976730,478.026337 130.898148,477.710327 
	C129.514862,476.616394 128.210144,475.838470 126.905449,475.060547 
	C126.905457,475.060516 126.976891,475.026184 126.907585,474.717102 
	C123.785881,469.550873 119.798866,465.986816 113.905388,465.060455 
	C113.905388,465.060455 113.976776,465.026306 113.898178,464.710327 
	C112.514877,463.616364 111.210167,462.838440 109.905457,462.060516 
	C109.905457,462.060516 109.976891,462.026184 109.907608,461.717163 
	C105.488213,455.517456 100.199677,450.913727 92.905426,449.060486 
	C92.905426,449.060486 92.976860,449.026154 92.907578,448.717133 
	C88.488182,442.517456 83.199677,437.913696 75.905426,436.060486 
	C75.905426,436.060486 75.976860,436.026154 75.907578,435.717133 
	C71.488159,429.517487 66.199661,424.913666 58.905396,423.060455 
	C58.905396,423.060455 58.976822,423.026154 58.907562,422.717133 
	C54.488205,416.517426 49.199612,411.913727 41.905380,410.060455 
	C41.905380,410.060455 41.976772,410.026306 41.898170,409.710327 
	C40.514854,408.616364 39.210136,407.838440 37.905418,407.060486 
	C37.905418,407.060486 37.976860,407.026154 37.907578,406.717133 
	C33.488174,400.517456 28.199673,395.913666 20.905394,394.060455 
	C20.905394,394.060455 20.976826,394.026154 20.907566,393.717133 
	C16.553864,387.942291 11.987709,382.873505 4.550509,381.850952 
	C4.550509,381.850952 4.580379,381.814819 4.559737,381.830750 
z"/>
<path fill="#FFC000" opacity="1.000000" stroke="none" 
	d="
M915.959412,671.625183 
	C908.800232,670.086304 903.511780,665.482361 899.109619,659.247131 
	C904.646606,663.038574 910.235474,667.174683 915.959412,671.625183 
z"/>
<path fill="#FFC000" opacity="1.000000" stroke="none" 
	d="
M843.959412,616.625244 
	C836.800232,615.086304 831.511780,610.482361 827.109619,604.247192 
	C832.646545,608.038635 838.235474,612.174744 843.959412,616.625244 
z"/>
<path fill="#FFC000" opacity="1.000000" stroke="none" 
	d="
M860.959412,629.625244 
	C853.800232,628.086304 848.511780,623.482361 844.109619,617.247192 
	C849.646545,621.038635 855.235474,625.174744 860.959412,629.625244 
z"/>
<path fill="#FFC000" opacity="1.000000" stroke="none" 
	d="
M148.040527,491.374817 
	C155.199631,492.913727 160.488190,497.517456 164.890259,503.752777 
	C159.353363,499.961334 153.764526,495.825256 148.040527,491.374817 
z"/>
<path fill="#FFC000" opacity="1.000000" stroke="none" 
	d="
M131.040527,478.374817 
	C138.199631,479.913696 143.488190,484.517487 147.890259,490.752777 
	C142.353348,486.961365 136.764511,482.825287 131.040527,478.374817 
z"/>
<path fill="#FFC000" opacity="1.000000" stroke="none" 
	d="
M932.959473,684.625183 
	C925.800232,683.086304 920.511780,678.482361 916.109680,672.247131 
	C921.646606,676.038574 927.235474,680.174683 932.959473,684.625183 
z"/>
<path fill="#FFC000" opacity="1.000000" stroke="none" 
	d="
M898.959412,658.625244 
	C891.800232,657.086304 886.511780,652.482361 882.109619,646.247192 
	C887.646545,650.038635 893.235474,654.174744 898.959412,658.625244 
z"/>
<path fill="#FFC000" opacity="1.000000" stroke="none" 
	d="
M949.959473,697.625183 
	C942.800232,696.086304 937.511780,691.482361 933.109680,685.247131 
	C938.646606,689.038574 944.235474,693.174683 949.959473,697.625183 
z"/>
<path fill="#FFC000" opacity="1.000000" stroke="none" 
	d="
M93.040558,449.374878 
	C100.199677,450.913727 105.488213,455.517456 109.890266,461.752808 
	C104.353378,457.961365 98.764542,453.825317 93.040558,449.374878 
z"/>
<path fill="#FFC000" opacity="1.000000" stroke="none" 
	d="
M76.040573,436.374847 
	C83.199677,437.913696 88.488182,442.517456 92.890244,448.752747 
	C87.353371,444.961334 81.764542,440.825287 76.040573,436.374847 
z"/>
<path fill="#FFC000" opacity="1.000000" stroke="none" 
	d="
M59.040535,423.374817 
	C66.199661,424.913666 71.488159,429.517487 75.890244,435.752747 
	C70.353348,431.961334 64.764511,427.825287 59.040535,423.374817 
z"/>
<path fill="#FFC000" opacity="1.000000" stroke="none" 
	d="
M42.040535,410.374817 
	C49.199612,411.913727 54.488205,416.517426 58.890244,422.752747 
	C53.353355,418.961334 47.764523,414.825256 42.040535,410.374817 
z"/>
<path fill="#FFC000" opacity="1.000000" stroke="none" 
	d="
M970.959412,713.625244 
	C963.800232,712.086304 958.511780,707.482361 954.109619,701.247192 
	C959.646545,705.038635 965.235413,709.174744 970.959412,713.625244 
z"/>
<path fill="#FFC000" opacity="1.000000" stroke="none" 
	d="
M21.040535,394.374817 
	C28.199673,395.913666 33.488174,400.517456 37.890228,406.752747 
	C32.353333,402.961334 26.764505,398.825287 21.040535,394.374817 
z"/>
<path fill="#FFC000" opacity="1.000000" stroke="none" 
	d="
M4.737796,382.107117 
	C11.987709,382.873505 16.553864,387.942291 20.890236,393.752747 
	C15.603141,390.186035 10.264112,386.274658 4.737796,382.107117 
z"/>
<path fill="#FFC000" opacity="1.000000" stroke="none" 
	d="
M987.262085,725.892822 
	C980.012146,725.126465 975.446106,720.057495 971.109619,714.247192 
	C976.396790,717.813843 981.735840,721.725220 987.262085,725.892822 
z"/>
<path fill="#FFC000" opacity="1.000000" stroke="none" 
	d="
M877.959412,642.625244 
	C872.201111,642.013000 868.213989,638.449097 865.109680,633.247192 
	C869.313232,636.038635 873.568787,639.174744 877.959412,642.625244 
z"/>
<path fill="#FFC000" opacity="1.000000" stroke="none" 
	d="
M114.040527,465.374817 
	C119.798866,465.986816 123.785881,469.550873 126.890251,474.752747 
	C122.686699,471.961334 118.431183,468.825256 114.040527,465.374817 
z"/>
<path fill="#FFC000" opacity="1.000000" stroke="none" 
	d="
M823.462341,597.834961 
	C819.771606,596.067200 820.440369,594.120789 823.494385,592.093628 
	C823.824707,593.876465 823.816040,595.753357 823.462341,597.834961 
z"/>
<path fill="#FFC000" opacity="1.000000" stroke="none" 
	d="
M168.537643,510.165039 
	C172.228348,511.932800 171.559494,513.879211 168.505646,515.906372 
	C168.175308,514.123535 168.183945,512.246704 168.537643,510.165039 
z"/>
<path fill="#FFC000" opacity="1.000000" stroke="none" 
	d="
M165.025208,504.357056 
	C166.361618,505.231903 167.817825,506.403290 169.082870,507.811279 
	C167.642822,506.916443 166.393921,505.785034 165.025208,504.357056 
z"/>
<path fill="#FFC000" opacity="1.000000" stroke="none" 
	d="
M826.974731,603.643005 
	C825.638306,602.768127 824.182068,601.596741 822.917053,600.188721 
	C824.357178,601.083496 825.606079,602.214966 826.974731,603.643005 
z"/>
<path fill="#FFC000" opacity="1.000000" stroke="none" 
	d="
M881.964966,645.631592 
	C880.789795,645.161621 879.485046,644.383667 878.118958,643.254089 
	C879.316833,643.709534 880.576111,644.516602 881.964966,645.631592 
z"/>
<path fill="#FFC000" opacity="1.000000" stroke="none" 
	d="
M864.964966,632.631592 
	C863.789734,632.161621 862.485046,631.383667 861.118958,630.254089 
	C862.316895,630.709534 863.576111,631.516541 864.964966,632.631592 
z"/>
<path fill="#FFC000" opacity="1.000000" stroke="none" 
	d="
M127.035034,475.368469 
	C128.210144,475.838470 129.514862,476.616394 130.880920,477.745941 
	C129.683075,477.290497 128.423843,476.483459 127.035034,475.368469 
z"/>
<path fill="#FFC000" opacity="1.000000" stroke="none" 
	d="
M110.035034,462.368469 
	C111.210167,462.838440 112.514877,463.616364 113.880936,464.745911 
	C112.683060,464.290497 111.423828,463.483459 110.035034,462.368469 
z"/>
<path fill="#FFC000" opacity="1.000000" stroke="none" 
	d="
M953.964966,700.631592 
	C952.789795,700.161621 951.485046,699.383667 950.118958,698.254089 
	C951.316833,698.709534 952.576111,699.516602 953.964966,700.631592 
z"/>
<path fill="#FFC000" opacity="1.000000" stroke="none" 
	d="
M38.035004,407.368469 
	C39.210136,407.838440 40.514854,408.616364 41.880920,409.745911 
	C40.683041,409.290497 39.423817,408.483459 38.035004,407.368469 
z"/>
<path fill="#FFC000" opacity="1.000000" stroke="none" 
	d="
M987.314209,728.903442 
	C987.162170,728.320374 987.324707,727.807312 987.674194,726.935913 
	C987.783691,727.376160 987.706177,728.174866 987.314209,728.903442 
z"/>
</svg>